<?xml version="1.0" encoding="utf-8"?>
<!-- Generator: Adobe Illustrator 22.0.1, SVG Export Plug-In . SVG Version: 6.00 Build 0)  -->
<svg version="1.1" id="Layer_1" xmlns="http://www.w3.org/2000/svg" xmlns:xlink="http://www.w3.org/1999/xlink" x="0px" y="0px"
	 viewBox="0 0 64 64" style="enable-background:new 0 0 64 64;" xml:space="preserve">
<style type="text/css">
	.st0{fill:#FFFFFF;}
</style>
<g>
	<path class="st0" d="M10.2,60.2c0,1.4-1.1,2.6-2.6,2.6H2.6c-1.4,0-2.6-1.1-2.6-2.6V34.6C0,33.1,1.1,32,2.6,32h5.1
		c1.4,0,2.6,1.1,2.6,2.6V60.2z"/>
	<path class="st0" d="M28.2,60.2c0,1.4-1.1,2.6-2.6,2.6h-5.1c-1.4,0-2.6-1.1-2.6-2.6V3.8c0-1.4,1.1-2.6,2.6-2.6h5.1
		c1.4,0,2.6,1.1,2.6,2.6L28.2,60.2L28.2,60.2z"/>
	<path class="st0" d="M46.1,60.2c0,1.4-1.1,2.6-2.6,2.6h-5.1c-1.4,0-2.6-1.1-2.6-2.6V14.1c0-1.4,1.1-2.6,2.6-2.6h5.1
		c1.4,0,2.6,1.1,2.6,2.6V60.2z"/>
	<path class="st0" d="M64,60.2c0,1.4-1.1,2.6-2.6,2.6h-5.1c-1.4,0-2.6-1.1-2.6-2.6V34.6c0-1.4,1.1-2.6,2.6-2.6h5.1
		c1.4,0,2.6,1.1,2.6,2.6V60.2z"/>
</g>
</svg>
