<?xml version="1.0" encoding="utf-8"?>
<!-- Generator: Adobe Illustrator 22.0.1, SVG Export Plug-In . SVG Version: 6.00 Build 0)  -->
<svg version="1.1" id="Layer_1" xmlns="http://www.w3.org/2000/svg" xmlns:xlink="http://www.w3.org/1999/xlink" x="0px" y="0px"
	 viewBox="0 0 64 64" style="enable-background:new 0 0 64 64;" xml:space="preserve">
<style type="text/css">
	.st0{fill:#FFFFFF;}
</style>
<path class="st0" d="M32,22.4c-6.6,0-12,5.4-12,12c0,6.6,5.4,12,12,12c6.6,0,12-5.4,12-12C44,27.8,38.6,22.4,32,22.4z M11.4,6.9H4.6
	v4.6h6.9C11.4,11.4,11.4,6.9,11.4,6.9z M60.7,13.7h-13c-1,0-2.2-1.9-3.2-4.1c-1.3-2.7-6-2.7-6-2.7H23.2c0,0-1.6-0.4-3.4,2.7
	c-1.2,2.1-2.4,4.2-3.4,4.2H3.3C1,13.7,0,15.5,0,17.9v34.9c0,2.5,1,4.4,3.3,4.4h57.3c2.3,0,3.3-1.9,3.3-4.4V17.9
	C64,15.5,63,13.7,60.7,13.7L60.7,13.7z M32,49.4c-8.3,0-15-6.7-15-15c0-8.3,6.7-15,15-15c8.3,0,15,6.7,15,15
	C47,42.6,40.3,49.4,32,49.4z M53.4,22.4c-1.4,0-2.5-1.1-2.5-2.5c0-1.4,1.1-2.5,2.5-2.5c1.4,0,2.5,1.1,2.5,2.5
	C55.9,21.3,54.8,22.4,53.4,22.4L53.4,22.4z"/>
</svg>
