<?xml version="1.0" encoding="utf-8"?>
<!-- Generator: Adobe Illustrator 16.0.0, SVG Export Plug-In . SVG Version: 6.00 Build 0)  -->
<!DOCTYPE svg PUBLIC "-//W3C//DTD SVG 1.1//EN" "http://www.w3.org/Graphics/SVG/1.1/DTD/svg11.dtd">
<svg version="1.1" id="Layer_1" xmlns="http://www.w3.org/2000/svg" xmlns:xlink="http://www.w3.org/1999/xlink" x="0px" y="0px"
	 width="64px" height="64px" viewBox="0 0 64 64" enable-background="new 0 0 64 64" xml:space="preserve">
<g>
	<g>
		<path d="M32,64c-0.782,0-1.58-0.034-2.344-0.089c-6.367-0.467-12.378-2.79-17.389-6.719c-4.029-3.155-7.287-7.298-9.423-11.976
			C0.957,41.075,0,36.625,0,31.99C0,14.351,14.355,0,32,0s32,14.351,32,31.99c0,4.827-1.041,9.451-3.095,13.743
			c-2.108,4.456-5.293,8.422-9.211,11.463c-4.952,3.895-10.899,6.213-17.186,6.695C33.696,63.964,32.855,64,32,64z M32,2.207
			c-16.428,0-29.793,13.361-29.793,29.783c0,4.316,0.89,8.458,2.646,12.312c1.988,4.357,5.022,8.214,8.775,11.152
			c4.665,3.658,10.261,5.822,16.185,6.255c1.479,0.102,3.051,0.112,4.515-0.016c5.862-0.449,11.394-2.607,16.006-6.236
			c3.651-2.835,6.616-6.521,8.578-10.673c1.913-3.995,2.881-8.299,2.881-12.794C61.793,15.568,48.43,2.207,32,2.207z"/>
	</g>
	<g>
		<g>
			<path d="M40.246,7.563c-0.423,0.669-1.225,1.448-1.757,1.726c-0.836,0.423-1.895,0.557-5.27,0.658
				c-4.015,0.123-4.691,0.255-5.985,1.191c-0.537,0.39-1.093,1.292-1.093,1.782c0,0.245-0.045,0.255-0.743,0.255
				c-1.283,0-2.097,0.591-2.843,2.05c-0.759,1.494-1.186,4.433-1.061,7.33l0.078,1.526l-0.599,0.712
				c-0.793,0.927-1.071,1.471-1.071,2.062c0,1.338,0.972,3.532,2.084,4.703c0.612,0.655,0.77,0.922,1.271,2.127
				c0.311,0.755,1.026,2.326,1.582,3.499c0.957,1.969,1.026,2.17,1.071,2.915c0.041,1.016-0.168,1.46-1.14,2.462l-0.689,0.702
				l0.444,0.398c1.905,1.694,4.002,2.787,6.004,3.143c2.621,0.471,5.643-0.566,8.48-2.918c0.369-0.302,0.682-0.591,0.705-0.646
				c0.017-0.044-0.2-0.334-0.483-0.623c-0.734-0.758-1.034-1.247-1.157-1.847c-0.143-0.828,0.045-1.563,0.871-3.198
				c0.823-1.639,1.704-3.609,2.025-4.557c0.146-0.424,0.414-0.814,0.938-1.358c1.126-1.205,2.173-3.543,2.173-4.88
				c0-0.601-0.289-1.159-1.015-1.947l-0.578-0.636l-0.023-2.64c-0.035-3.041-0.177-4.099-0.789-5.593l-0.393-0.968l0.35-0.724
				c0.668-1.438,0.814-3.274,0.374-4.78c-0.232-0.777-0.754-1.78-1.133-2.148l-0.302-0.279L40.246,7.563z"/>
		</g>
		<g>
			<path d="M28.569,62.709c-5.853-0.655-11.226-2.936-15.621-6.386c-1.444-1.131-2.765-2.369-3.983-3.741
				c0.121-0.153,0.222-0.292,0.343-0.429c1.114-1.268,3.243-2.643,6.368-4.151c4.412-2.112,5.648-2.745,6.127-3.054
				c0.276-0.206,0.518-0.359,0.549-0.359c0.035,0,0.136,0.426,0.274,0.906C23.623,50.025,26.198,57.474,28.569,62.709z"/>
		</g>
		<g>
			<path d="M55.018,52.582c-1.219,1.372-2.557,2.627-4,3.741c-4.36,3.416-9.627,5.679-15.395,6.352
				c0.066-0.139,0.138-0.311,0.205-0.466c1.904-4.15,4.052-10.415,5.252-15.271c0.238-1.013,0.446-1.923,0.446-2.043
				c0-0.271,0.172-0.257,0.875,0.189c0.788,0.481,2.456,1.288,4.857,2.438C51.362,49.424,53.799,51.005,55.018,52.582z"/>
		</g>
	</g>
</g>
</svg>
