<?xml version="1.0" encoding="utf-8"?>
<!-- Generator: Adobe Illustrator 16.0.0, SVG Export Plug-In . SVG Version: 6.00 Build 0)  -->
<!DOCTYPE svg PUBLIC "-//W3C//DTD SVG 1.1//EN" "http://www.w3.org/Graphics/SVG/1.1/DTD/svg11.dtd">
<svg version="1.1" id="Layer_1" xmlns="http://www.w3.org/2000/svg" xmlns:xlink="http://www.w3.org/1999/xlink" x="0px" y="0px"
	 width="64px" height="64px" viewBox="0 0 64 64" enable-background="new 0 0 64 64" xml:space="preserve">
<g>
	<path d="M10.24,60.16c0,1.414-1.145,2.561-2.56,2.561H2.56C1.145,62.721,0,61.574,0,60.16v-25.6c0-1.414,1.145-2.562,2.56-2.562
		h5.12c1.415,0,2.56,1.147,2.56,2.562V60.16z"/>
	<path d="M28.16,60.16c0,1.414-1.146,2.561-2.561,2.561H20.48c-1.415,0-2.561-1.146-2.561-2.561V3.84
		c0-1.414,1.146-2.561,2.561-2.561H25.6c1.415,0,2.561,1.146,2.561,2.561V60.16z"/>
	<path d="M46.08,60.16c0,1.414-1.146,2.561-2.561,2.561H38.4c-1.415,0-2.561-1.146-2.561-2.561V14.079
		c0-1.413,1.146-2.56,2.561-2.56h5.119c1.415,0,2.561,1.146,2.561,2.56V60.16z"/>
	<path d="M64,60.16c0,1.414-1.145,2.561-2.56,2.561h-5.12c-1.415,0-2.561-1.146-2.561-2.561v-25.6c0-1.414,1.146-2.562,2.561-2.562
		h5.12c1.415,0,2.56,1.147,2.56,2.562V60.16z"/>
</g>
</svg>
