<?xml version="1.0" encoding="utf-8"?>
<!-- Generator: Adobe Illustrator 16.0.0, SVG Export Plug-In . SVG Version: 6.00 Build 0)  -->
<!DOCTYPE svg PUBLIC "-//W3C//DTD SVG 1.1//EN" "http://www.w3.org/Graphics/SVG/1.1/DTD/svg11.dtd">
<svg version="1.1" id="Layer_1" xmlns="http://www.w3.org/2000/svg" xmlns:xlink="http://www.w3.org/1999/xlink" x="0px" y="0px"
	 width="64px" height="64px" viewBox="0 0 64 64" enable-background="new 0 0 64 64" xml:space="preserve">
<path d="M32.005,22.412c-6.608,0-11.967,5.355-11.967,11.965c0,6.607,5.355,11.969,11.967,11.969
	c6.611,0,11.966-5.357,11.966-11.969C43.971,27.773,38.616,22.412,32.005,22.412z M11.428,6.868H4.572v4.571h6.856V6.868z
	 M60.681,13.726H47.646c-0.989,0-2.164-1.903-3.248-4.135c-1.308-2.701-6.024-2.722-6.024-2.722H23.174c0,0-1.554-0.445-3.379,2.693
	c-1.237,2.13-2.357,4.165-3.413,4.165H3.326C0.982,13.726,0,15.451,0,17.936v34.861c0,2.481,0.982,4.356,3.326,4.356h57.348
	c2.345,0,3.326-1.875,3.326-4.356V17.936C64,15.457,63.022,13.726,60.681,13.726L60.681,13.726z M31.995,49.354
	c-8.257,0-14.955-6.699-14.955-14.956c0-8.259,6.698-14.965,14.955-14.965c8.26,0,14.958,6.7,14.958,14.956
	C46.953,42.648,40.255,49.354,31.995,49.354z M53.438,22.419c-1.38,0-2.486-1.116-2.486-2.501c0-1.377,1.116-2.499,2.486-2.499
	c1.377,0,2.491,1.115,2.491,2.499C55.929,21.304,54.814,22.419,53.438,22.419L53.438,22.419z"/>
</svg>
