<svg xmlns="http://www.w3.org/2000/svg" viewBox="0 0 399.11 234.59"><defs><style>.a{fill:#10486e;}.b{fill:#fff;}</style></defs><title>logo</title><rect class="a" width="399.11" height="234.59"/><path class="b" d="M98.93,108.61,108,134.24l9-25.63h9.56V144h-7.31v-9.66l.73-16.67L110.48,144h-5L96,117.64l.73,16.65V144H89.42V108.61Z"/><path class="b" d="M142.31,134l4.85-16.34h7.53L144.13,148l-.59,1.38a8,8,0,0,1-7.76,5.15,11,11,0,0,1-3.11-.46v-5.32l1.07,0a5.7,5.7,0,0,0,3-.61,3.91,3.91,0,0,0,1.54-2l.83-2.16-9.2-26.34h7.55Z"/><path class="b" d="M167.43,108.61l9.08,25.63,9-25.63h9.56V144h-7.31v-9.66l.73-16.67L179,144h-5l-9.51-26.31.73,16.65V144h-7.29V108.61Z"/><path class="b" d="M216.22,144a7.68,7.68,0,0,1-.71-2.35,8.48,8.48,0,0,1-6.62,2.84,9.36,9.36,0,0,1-6.4-2.23,7.19,7.19,0,0,1-2.53-5.64,7.4,7.4,0,0,1,3.09-6.4c2.06-1.49,5-2.25,8.95-2.26h3.22V126.4a4.34,4.34,0,0,0-.93-2.91,3.67,3.67,0,0,0-2.95-1.09,4.16,4.16,0,0,0-2.78.85,2.88,2.88,0,0,0-1,2.33h-7a7.07,7.07,0,0,1,1.41-4.23,9.2,9.2,0,0,1,4-3,14.41,14.41,0,0,1,5.77-1.11,11.5,11.5,0,0,1,7.71,2.44,8.54,8.54,0,0,1,2.85,6.86v11.38a12.59,12.59,0,0,0,1.05,5.66V144Zm-5.8-4.88a6,6,0,0,0,2.86-.69,4.57,4.57,0,0,0,1.94-1.85V132H212.6q-5.26,0-5.61,3.64l0,.41a2.8,2.8,0,0,0,.92,2.16A3.59,3.59,0,0,0,210.42,139.07Z"/><path class="b" d="M242.41,124.27a19.19,19.19,0,0,0-2.53-.2q-4,0-5.21,2.7V144h-7V117.69h6.63l.19,3.13a6.51,6.51,0,0,1,5.85-3.62,7.38,7.38,0,0,1,2.19.32Z"/><path class="b" d="M245.74,110.89a3.45,3.45,0,0,1,1-2.59,4.55,4.55,0,0,1,5.74,0,3.69,3.69,0,0,1,0,5.21,4.49,4.49,0,0,1-5.7,0A3.4,3.4,0,0,1,245.74,110.89ZM253.19,144h-7V117.69h7Z"/><path class="b" d="M265.42,117.69l.22,3a9.19,9.19,0,0,1,7.55-3.52q4.17,0,6.21,2.46t2.09,7.33v17h-7V127.16a4.53,4.53,0,0,0-1-3.24,4.3,4.3,0,0,0-3.23-1,4.83,4.83,0,0,0-4.44,2.52V144h-7V117.69Z"/><path class="b" d="M298.89,144.44a12.86,12.86,0,0,1-9.4-3.55,12.59,12.59,0,0,1-3.63-9.44v-.68a15.83,15.83,0,0,1,1.53-7.07,11.25,11.25,0,0,1,4.33-4.81,12.21,12.21,0,0,1,6.4-1.69,10.91,10.91,0,0,1,8.48,3.4q3.09,3.41,3.1,9.64v2.86H293a6.54,6.54,0,0,0,2,4.13,6.18,6.18,0,0,0,4.33,1.55,7.59,7.59,0,0,0,6.34-2.93l3.45,3.86a10.62,10.62,0,0,1-4.28,3.48A14,14,0,0,1,298.89,144.44Zm-.8-21.58a4.37,4.37,0,0,0-3.38,1.41,7.4,7.4,0,0,0-1.67,4h9.76v-.56a5.2,5.2,0,0,0-1.26-3.62A4.54,4.54,0,0,0,298.09,122.86Z"/><path class="b" d="M197.71,93.65c.54.48,1.21,1,1.85,1.56s1.32,1,2,1.46a27.5,27.5,0,0,0,8.16,3.68,26.31,26.31,0,0,0,7.35.89,27.51,27.51,0,0,0,3-.23c.92-.17,1.76-.28,2.5-.5l1-.27.91-.32a13.91,13.91,0,0,0,1.39-.53l1.12-.5-1.23,0c-.4,0-.89,0-1.46,0s-1.21,0-1.93-.09-1.51-.15-2.36-.25-1.75-.28-2.7-.53a28.74,28.74,0,0,1-6-2.21,26.7,26.7,0,0,1-6-4.13l-.7-.68-19.5-19.53c-.53-.48-1.2-1-1.84-1.56s-1.33-1-2-1.46a28,28,0,0,0-8.17-3.69,26.19,26.19,0,0,0-10.37-.65c-.93.17-1.76.28-2.51.5l-1,.27c-.33.1-.63.22-.91.31-.57.2-1,.37-1.39.53l-1.13.51,1.23,0a13.54,13.54,0,0,1,1.46,0c.57,0,1.21,0,1.94.09s1.51.15,2.36.24,1.75.29,2.69.54a27.91,27.91,0,0,1,6,2.21,26.82,26.82,0,0,1,6,4.13l.69.68Z"/><path class="b" d="M213.47,86.22c.4.36.9.77,1.38,1.17s1,.74,1.48,1.09a20.88,20.88,0,0,0,6.13,2.77,19.7,19.7,0,0,0,5.51.66,21.7,21.7,0,0,0,2.27-.17,18.85,18.85,0,0,0,1.88-.38l.78-.2.69-.24c.42-.14.77-.27,1-.39l.84-.38-.92,0c-.3,0-.67,0-1.09,0s-.91,0-1.46-.06-1.13-.12-1.76-.19-1.32-.21-2-.4a21,21,0,0,1-4.51-1.66,20,20,0,0,1-4.53-3.09l-.52-.51L204,69.63c-.41-.36-.91-.78-1.39-1.17s-1-.74-1.48-1.1A20.73,20.73,0,0,0,195,64.6a20,20,0,0,0-5.51-.67,19.18,19.18,0,0,0-2.27.18,19,19,0,0,0-1.88.37l-.78.21-.69.23c-.42.15-.77.27-1,.4l-.84.38.92,0a7.83,7.83,0,0,1,1.1,0c.42,0,.91,0,1.45.06s1.13.11,1.77.18,1.31.22,2,.41A20.89,20.89,0,0,1,193.79,68a20.07,20.07,0,0,1,4.53,3.1l.52.51Z"/><path class="b" d="M226.82,80.64c.3.27.68.59,1,.88a12.19,12.19,0,0,0,1.11.82,15.2,15.2,0,0,0,8.73,2.58c.61,0,1.18-.07,1.7-.13a13.92,13.92,0,0,0,1.41-.29l.59-.15.51-.18a7,7,0,0,0,.78-.29l.64-.29-.7,0a7.41,7.41,0,0,1-.82,0c-.31,0-.68,0-1.08,0s-.86-.09-1.33-.14-1-.16-1.52-.3a16.27,16.27,0,0,1-3.38-1.24,15,15,0,0,1-3.4-2.33l-.39-.38-11-11c-.3-.27-.68-.58-1-.88s-.74-.55-1.11-.81A15.54,15.54,0,0,0,213,64.43a14.72,14.72,0,0,0-4.14-.5c-.61,0-1.18.07-1.7.13s-1,.16-1.41.28l-.59.16-.51.17q-.48.17-.78.3l-.63.29.69,0a7.13,7.13,0,0,1,.82,0c.32,0,.68,0,1.09,0s.85.09,1.32.14,1,.16,1.52.3A16.34,16.34,0,0,1,212.07,67a15,15,0,0,1,3.39,2.33l.39.38Z"/><path class="b" d="M97.13,164.53A3.68,3.68,0,0,1,96,167a3.86,3.86,0,0,1-2.64.87,3.53,3.53,0,0,1-2.85-1.28,5.12,5.12,0,0,1-1.08-3.42v-1a5.79,5.79,0,0,1,.5-2.47,3.78,3.78,0,0,1,1.42-1.63,3.94,3.94,0,0,1,2.13-.57,3.67,3.67,0,0,1,2.57.89,3.74,3.74,0,0,1,1.12,2.48H95.8a2.82,2.82,0,0,0-.75-1.75,2.25,2.25,0,0,0-1.61-.54,2.35,2.35,0,0,0-2,.94,4.34,4.34,0,0,0-.72,2.68v1a4.43,4.43,0,0,0,.68,2.61,2.21,2.21,0,0,0,1.91,1,2.54,2.54,0,0,0,1.7-.5,2.78,2.78,0,0,0,.78-1.74Z"/><path class="b" d="M98.4,163.91a4.39,4.39,0,0,1,.44-2,3,3,0,0,1,1.2-1.35,3.25,3.25,0,0,1,1.76-.48,3.12,3.12,0,0,1,2.46,1.06,4.05,4.05,0,0,1,.95,2.81v.09a4.47,4.47,0,0,1-.42,2,3.19,3.19,0,0,1-3,1.83,3.13,3.13,0,0,1-2.46-1.06,4,4,0,0,1-.95-2.8Zm1.29.16a3.14,3.14,0,0,0,.58,2,1.81,1.81,0,0,0,1.54.76,1.85,1.85,0,0,0,1.55-.77,3.51,3.51,0,0,0,.57-2.14,3.2,3.2,0,0,0-.58-2,1.86,1.86,0,0,0-1.55-.76,1.84,1.84,0,0,0-1.53.75A3.45,3.45,0,0,0,99.69,164.07Z"/><path class="b" d="M108.2,167.72h-1.28V157.11h1.28Z"/><path class="b" d="M111.63,167.72h-1.28V157.11h1.28Z"/><path class="b" d="M116.77,167.86a3.26,3.26,0,0,1-2.47-1,3.71,3.71,0,0,1-1-2.67V164a4.54,4.54,0,0,1,.42-2A3.39,3.39,0,0,1,115,160.6a3,3,0,0,1,1.66-.49,2.79,2.79,0,0,1,2.26,1,4.16,4.16,0,0,1,.81,2.75v.53h-5.06a2.69,2.69,0,0,0,.64,1.79,2,2,0,0,0,1.57.68,2.28,2.28,0,0,0,1.15-.28,2.84,2.84,0,0,0,.82-.73l.78.6A3.12,3.12,0,0,1,116.77,167.86Zm-.15-6.7a1.72,1.72,0,0,0-1.3.56,2.73,2.73,0,0,0-.65,1.58h3.74v-.1a2.48,2.48,0,0,0-.52-1.51A1.64,1.64,0,0,0,116.62,161.16Z"/><path class="b" d="M124.17,166.82a1.82,1.82,0,0,0,1.19-.42,1.46,1.46,0,0,0,.57-1h1.2a2.33,2.33,0,0,1-.44,1.22,2.9,2.9,0,0,1-1.09.92,3.11,3.11,0,0,1-1.43.35,3.08,3.08,0,0,1-2.43-1,4.07,4.07,0,0,1-.9-2.79v-.21a4.43,4.43,0,0,1,.4-1.94,3,3,0,0,1,1.15-1.32,3.29,3.29,0,0,1,1.77-.47,3,3,0,0,1,2.09.75,2.7,2.7,0,0,1,.88,2h-1.2a1.75,1.75,0,0,0-.55-1.19,1.68,1.68,0,0,0-1.22-.47,1.79,1.79,0,0,0-1.51.7,3.27,3.27,0,0,0-.54,2v.24a3.21,3.21,0,0,0,.54,2A1.81,1.81,0,0,0,124.17,166.82Z"/><path class="b" d="M130.3,158.44v1.81h1.4v1h-1.4v4.64a1.07,1.07,0,0,0,.19.67.79.79,0,0,0,.64.22,2.67,2.67,0,0,0,.6-.08v1a3.74,3.74,0,0,1-1,.14,1.58,1.58,0,0,1-1.29-.52,2.22,2.22,0,0,1-.43-1.47v-4.63h-1.36v-1H129v-1.81Z"/><path class="b" d="M133.2,158.27a.75.75,0,0,1,.19-.53.7.7,0,0,1,.56-.21.74.74,0,0,1,.57.21.75.75,0,0,1,.19.53.7.7,0,0,1-.19.51.74.74,0,0,1-.57.21.69.69,0,0,1-.75-.72Zm1.38,9.45H133.3v-7.47h1.28Z"/><path class="b" d="M137.83,160.25l0,.94a2.72,2.72,0,0,1,2.24-1.08c1.58,0,2.38.89,2.39,2.67v4.94h-1.28v-4.94a1.68,1.68,0,0,0-.37-1.2,1.46,1.46,0,0,0-1.13-.39,1.81,1.81,0,0,0-1.09.34,2.3,2.3,0,0,0-.73.87v5.32h-1.28v-7.47Z"/><path class="b" d="M144.12,163.92a4.4,4.4,0,0,1,.81-2.78,2.79,2.79,0,0,1,4.28-.06l.06-.83h1.16v7.29a3.06,3.06,0,0,1-.85,2.29,3.22,3.22,0,0,1-2.31.83,3.89,3.89,0,0,1-1.59-.34,2.75,2.75,0,0,1-1.18-.95l.67-.77a2.47,2.47,0,0,0,2,1,2,2,0,0,0,1.45-.53,2,2,0,0,0,.52-1.47V167a2.63,2.63,0,0,1-2.09.89,2.56,2.56,0,0,1-2.13-1.06A4.61,4.61,0,0,1,144.12,163.92Zm1.29.15a3.3,3.3,0,0,0,.52,2,1.64,1.64,0,0,0,1.45.72,1.87,1.87,0,0,0,1.77-1.09v-3.41a1.89,1.89,0,0,0-1.76-1.08,1.72,1.72,0,0,0-1.46.73A3.65,3.65,0,0,0,145.41,164.07Z"/><path class="b" d="M155.55,163.92a4.32,4.32,0,0,1,.82-2.76,2.76,2.76,0,0,1,4.21-.15v-3.9h1.28v10.61h-1.18l-.06-.8a2.61,2.61,0,0,1-2.13.94,2.56,2.56,0,0,1-2.12-1.07,4.43,4.43,0,0,1-.82-2.77Zm1.28.15a3.33,3.33,0,0,0,.53,2,1.68,1.68,0,0,0,1.45.71,1.85,1.85,0,0,0,1.77-1.09v-3.43a1.89,1.89,0,0,0-1.76-1.06,1.71,1.71,0,0,0-1.46.73A3.64,3.64,0,0,0,156.83,164.07Z"/><path class="b" d="M168.45,167.72a3,3,0,0,1-.18-.79,2.83,2.83,0,0,1-2.12.93,2.65,2.65,0,0,1-1.82-.63,2,2,0,0,1-.7-1.58,2.1,2.1,0,0,1,.88-1.81,4.2,4.2,0,0,1,2.5-.65h1.24v-.59a1.41,1.41,0,0,0-.4-1.06,1.58,1.58,0,0,0-1.18-.4,1.84,1.84,0,0,0-1.14.34,1,1,0,0,0-.47.84h-1.28a1.79,1.79,0,0,1,.39-1.08,2.84,2.84,0,0,1,1.08-.83,3.69,3.69,0,0,1,1.5-.3,3,3,0,0,1,2,.64,2.35,2.35,0,0,1,.76,1.78V166a4.33,4.33,0,0,0,.26,1.64v.11Zm-2.12-1a2.32,2.32,0,0,0,1.14-.31,1.89,1.89,0,0,0,.78-.81v-1.54h-1c-1.56,0-2.35.46-2.35,1.38a1.19,1.19,0,0,0,.4.94A1.58,1.58,0,0,0,166.33,166.75Z"/><path class="b" d="M173.27,158.44v1.81h1.39v1h-1.39v4.64a1.07,1.07,0,0,0,.18.67.8.8,0,0,0,.64.22,2.74,2.74,0,0,0,.61-.08v1a3.86,3.86,0,0,1-1,.14,1.58,1.58,0,0,1-1.3-.52,2.22,2.22,0,0,1-.43-1.47v-4.63h-1.36v-1H172v-1.81Z"/><path class="b" d="M180.77,167.72a2.35,2.35,0,0,1-.18-.79,2.87,2.87,0,0,1-2.13.93,2.61,2.61,0,0,1-1.81-.63,2,2,0,0,1-.71-1.58,2.11,2.11,0,0,1,.89-1.81,4.17,4.17,0,0,1,2.49-.65h1.25v-.59a1.45,1.45,0,0,0-.4-1.06,1.6,1.6,0,0,0-1.19-.4,1.86,1.86,0,0,0-1.14.34,1,1,0,0,0-.46.84h-1.29a1.74,1.74,0,0,1,.4-1.08,2.7,2.7,0,0,1,1.08-.83,3.64,3.64,0,0,1,1.49-.3,2.93,2.93,0,0,1,2,.64,2.32,2.32,0,0,1,.76,1.78V166a4.12,4.12,0,0,0,.27,1.64v.11Zm-2.12-1a2.32,2.32,0,0,0,1.14-.31,1.89,1.89,0,0,0,.78-.81v-1.54h-1c-1.57,0-2.35.46-2.35,1.38a1.16,1.16,0,0,0,.4.94A1.56,1.56,0,0,0,178.65,166.75Z"/><path class="b" d="M188,167.72v-6.48H186.8v-1H188v-.77a2.51,2.51,0,0,1,.64-1.85,2.42,2.42,0,0,1,1.82-.66,3.7,3.7,0,0,1,.87.11l-.07,1a3.69,3.69,0,0,0-.69-.06,1.27,1.27,0,0,0-1,.36,1.54,1.54,0,0,0-.34,1.05v.79h1.6v1h-1.6v6.48Z"/><path class="b" d="M191.92,163.91a4.38,4.38,0,0,1,.43-2,3.17,3.17,0,0,1,1.2-1.35,3.27,3.27,0,0,1,1.76-.48,3.14,3.14,0,0,1,2.47,1.06,4,4,0,0,1,.94,2.81v.09a4.61,4.61,0,0,1-.41,2,3.27,3.27,0,0,1-1.2,1.35,3.32,3.32,0,0,1-1.78.48,3.14,3.14,0,0,1-2.47-1.06,4,4,0,0,1-.94-2.8Zm1.29.16a3.2,3.2,0,0,0,.57,2,1.94,1.94,0,0,0,3.09,0,3.51,3.51,0,0,0,.58-2.14,3.2,3.2,0,0,0-.59-2,1.84,1.84,0,0,0-1.55-.76,1.82,1.82,0,0,0-1.52.75A3.45,3.45,0,0,0,193.21,164.07Z"/><path class="b" d="M203.94,161.39a4.26,4.26,0,0,0-.63,0,1.68,1.68,0,0,0-1.71,1.07v5.3h-1.28v-7.47h1.25l0,.86a2,2,0,0,1,1.78-1,1.24,1.24,0,0,1,.57.1Z"/><path class="b" d="M208.27,163.91a4.39,4.39,0,0,1,.44-2,3,3,0,0,1,1.2-1.35,3.25,3.25,0,0,1,1.76-.48,3.13,3.13,0,0,1,2.46,1.06,4.05,4.05,0,0,1,1,2.81v.09a4.47,4.47,0,0,1-.42,2,3.19,3.19,0,0,1-3,1.83,3.12,3.12,0,0,1-2.46-1.06,4,4,0,0,1-.95-2.8Zm1.29.16a3.2,3.2,0,0,0,.57,2,2,2,0,0,0,3.1,0,3.51,3.51,0,0,0,.57-2.14,3.2,3.2,0,0,0-.59-2,1.94,1.94,0,0,0-3.07,0A3.45,3.45,0,0,0,209.56,164.07Z"/><path class="b" d="M221.29,167a2.69,2.69,0,0,1-2.19.88,2.32,2.32,0,0,1-1.82-.7,3,3,0,0,1-.63-2v-4.86h1.28v4.83c0,1.13.46,1.69,1.38,1.69a1.91,1.91,0,0,0,1.95-1.09v-5.43h1.27v7.47h-1.21Z"/><path class="b" d="M228.09,161.39a4.09,4.09,0,0,0-.63,0,1.68,1.68,0,0,0-1.71,1.07v5.3h-1.27v-7.47h1.24l0,.86a2,2,0,0,1,1.78-1,1.24,1.24,0,0,1,.57.1Z"/><path class="b" d="M235.86,167.86a3.26,3.26,0,0,1-2.47-1,3.71,3.71,0,0,1-.95-2.67V164a4.54,4.54,0,0,1,.42-2,3.39,3.39,0,0,1,1.19-1.37,3,3,0,0,1,1.66-.49,2.79,2.79,0,0,1,2.26,1,4.16,4.16,0,0,1,.81,2.75v.53h-5.06a2.69,2.69,0,0,0,.64,1.79,2,2,0,0,0,1.57.68,2.28,2.28,0,0,0,1.15-.28,2.84,2.84,0,0,0,.82-.73l.78.6A3.12,3.12,0,0,1,235.86,167.86Zm-.15-6.7a1.72,1.72,0,0,0-1.3.56,2.73,2.73,0,0,0-.65,1.58h3.74v-.1a2.48,2.48,0,0,0-.52-1.51A1.64,1.64,0,0,0,235.71,161.16Z"/><path class="b" d="M241.46,160.25l0,.94a2.71,2.71,0,0,1,2.23-1.08c1.58,0,2.38.89,2.39,2.67v4.94h-1.27v-4.94a1.77,1.77,0,0,0-.37-1.2,1.49,1.49,0,0,0-1.13-.39,1.77,1.77,0,0,0-1.09.34,2.24,2.24,0,0,0-.74.87v5.32h-1.27v-7.47Z"/><path class="b" d="M250.53,166l1.85-5.74h1.3L251,167.72h-1l-2.71-7.47h1.31Z"/><path class="b" d="M254.92,158.27a.75.75,0,0,1,.19-.53.7.7,0,0,1,.56-.21.74.74,0,0,1,.57.21.75.75,0,0,1,.19.53.7.7,0,0,1-.19.51.74.74,0,0,1-.57.21.69.69,0,0,1-.75-.72Zm1.38,9.45H255v-7.47h1.28Z"/><path class="b" d="M262,161.39a4.26,4.26,0,0,0-.63,0,1.68,1.68,0,0,0-1.71,1.07v5.3h-1.28v-7.47h1.25l0,.86a2,2,0,0,1,1.78-1,1.24,1.24,0,0,1,.57.1Z"/><path class="b" d="M262.65,163.91a4.52,4.52,0,0,1,.43-2,3.12,3.12,0,0,1,1.21-1.35,3.22,3.22,0,0,1,1.75-.48,3.14,3.14,0,0,1,2.47,1.06,4.05,4.05,0,0,1,.95,2.81v.09a4.47,4.47,0,0,1-.42,2,3.19,3.19,0,0,1-3,1.83,3.14,3.14,0,0,1-2.47-1.06,4.07,4.07,0,0,1-.94-2.8Zm1.29.16a3.2,3.2,0,0,0,.57,2,1.84,1.84,0,0,0,1.55.76,1.82,1.82,0,0,0,1.54-.77,3.45,3.45,0,0,0,.58-2.14,3.2,3.2,0,0,0-.59-2,1.84,1.84,0,0,0-1.55-.76,1.82,1.82,0,0,0-1.52.75A3.45,3.45,0,0,0,263.94,164.07Z"/><path class="b" d="M272.26,160.25l.05.94a2.71,2.71,0,0,1,2.23-1.08c1.58,0,2.38.89,2.39,2.67v4.94h-1.27v-4.94a1.77,1.77,0,0,0-.37-1.2,1.47,1.47,0,0,0-1.13-.39,1.79,1.79,0,0,0-1.09.34,2.14,2.14,0,0,0-.73.87v5.32h-1.28v-7.47Z"/><path class="b" d="M280.06,160.25l0,.83a2.72,2.72,0,0,1,2.21-1,2.14,2.14,0,0,1,2.14,1.2,2.81,2.81,0,0,1,1-.87,2.88,2.88,0,0,1,1.41-.33c1.64,0,2.47.87,2.5,2.6v5h-1.28v-4.93a1.76,1.76,0,0,0-.36-1.2,1.65,1.65,0,0,0-1.23-.4,1.67,1.67,0,0,0-1.73,1.57v5h-1.28v-4.9a1.43,1.43,0,0,0-1.6-1.63,1.71,1.71,0,0,0-1.72,1.08v5.45h-1.28v-7.47Z"/><path class="b" d="M294.36,167.86a3.24,3.24,0,0,1-2.47-1,3.67,3.67,0,0,1-1-2.67V164a4.41,4.41,0,0,1,.43-2,3.31,3.31,0,0,1,1.19-1.37,3,3,0,0,1,1.65-.49,2.78,2.78,0,0,1,2.26,1,4.16,4.16,0,0,1,.81,2.75v.53h-5.06a2.7,2.7,0,0,0,.65,1.79,2,2,0,0,0,1.57.68,2.24,2.24,0,0,0,1.14-.28,2.88,2.88,0,0,0,.83-.73l.78.6A3.14,3.14,0,0,1,294.36,167.86Zm-.16-6.7a1.72,1.72,0,0,0-1.3.56,2.73,2.73,0,0,0-.65,1.58H296v-.1a2.48,2.48,0,0,0-.53-1.51A1.62,1.62,0,0,0,294.2,161.16Z"/><path class="b" d="M300,160.25l0,.94a2.72,2.72,0,0,1,2.24-1.08c1.58,0,2.38.89,2.39,2.67v4.94h-1.28v-4.94a1.72,1.72,0,0,0-.37-1.2,1.47,1.47,0,0,0-1.13-.39,1.79,1.79,0,0,0-1.09.34,2.22,2.22,0,0,0-.73.87v5.32h-1.28v-7.47Z"/><path class="b" d="M308.29,158.44v1.81h1.39v1h-1.39v4.64a1.07,1.07,0,0,0,.18.67.8.8,0,0,0,.64.22,2.74,2.74,0,0,0,.61-.08v1a3.8,3.8,0,0,1-1,.14,1.58,1.58,0,0,1-1.29-.52,2.22,2.22,0,0,1-.44-1.47v-4.63h-1.36v-1H307v-1.81Z"/></svg>