<?xml version="1.0" encoding="utf-8"?>
<!-- Generator: Adobe Illustrator 22.0.1, SVG Export Plug-In . SVG Version: 6.00 Build 0)  -->
<svg version="1.1" id="Layer_1" xmlns="http://www.w3.org/2000/svg" xmlns:xlink="http://www.w3.org/1999/xlink" x="0px" y="0px"
	 viewBox="0 0 399.1 234.6" style="enable-background:new 0 0 399.1 234.6;" xml:space="preserve">
<style type="text/css">
	.st0{fill:#686868;}
</style>
<title>logo</title>
<path class="st0" d="M98.9,108.6l9.1,25.6l9-25.6h9.6V144h-7.3v-9.7l0.7-16.7l-9.5,26.3h-5L96,117.6l0.7,16.6v9.7h-7.3v-35.4H98.9z"
	/>
<path class="st0" d="M142.3,134l4.9-16.3h7.5L144.1,148l-0.6,1.4c-1.2,3.2-4.3,5.3-7.8,5.1c-1.1,0-2.1-0.2-3.1-0.5v-5.3h1.1
	c1,0.1,2.1-0.1,3-0.6c0.7-0.5,1.3-1.2,1.5-2l0.8-2.2l-9.2-26.3h7.6L142.3,134z"/>
<path class="st0" d="M167.4,108.6l9.1,25.6l9-25.6h9.6V144h-7.3v-9.7l0.7-16.7L179,144h-5l-9.5-26.3l0.7,16.6v9.7h-7.3v-35.4H167.4z
	"/>
<path class="st0" d="M216.2,144c-0.4-0.7-0.6-1.5-0.7-2.4c-1.7,1.9-4.1,2.9-6.6,2.8c-2.3,0.1-4.6-0.7-6.4-2.2
	c-1.6-1.4-2.6-3.5-2.5-5.6c-0.1-2.5,1-4.9,3.1-6.4c2.1-1.5,5-2.2,8.9-2.3h3.2v-1.6c0.1-1.1-0.3-2.1-0.9-2.9
	c-0.8-0.8-1.9-1.2-2.9-1.1c-1-0.1-2,0.2-2.8,0.8c-0.7,0.6-1,1.4-1,2.3h-7c0-1.5,0.5-3,1.4-4.2c1-1.4,2.4-2.4,4-3
	c1.8-0.8,3.8-1.1,5.8-1.1c2.8-0.1,5.5,0.7,7.7,2.4c1.9,1.7,3,4.3,2.9,6.9v11.4c-0.1,1.9,0.3,3.9,1.1,5.7v0.4H216.2z M210.4,139.1
	c1,0,2-0.2,2.9-0.7c0.8-0.4,1.5-1.1,1.9-1.9V132h-2.6c-3.5,0-5.4,1.2-5.6,3.6v0.4c0,0.8,0.3,1.6,0.9,2.2
	C208.6,138.8,209.5,139.1,210.4,139.1L210.4,139.1z"/>
<path class="st0" d="M242.4,124.3c-0.8-0.1-1.7-0.2-2.5-0.2c-2.7,0-4.4,0.9-5.2,2.7V144h-7v-26.3h6.6l0.2,3.1
	c1.1-2.2,3.4-3.6,5.9-3.6c0.7,0,1.5,0.1,2.2,0.3L242.4,124.3z"/>
<path class="st0" d="M245.7,110.9c0-1,0.3-1.9,1-2.6c1.7-1.4,4.1-1.4,5.7,0c1.4,1.4,1.4,3.8,0,5.2c-1.7,1.4-4,1.4-5.7,0
	C246.1,112.8,245.7,111.9,245.7,110.9z M253.2,144h-7v-26.3h7V144z"/>
<path class="st0" d="M265.4,117.7l0.2,3c1.8-2.3,4.6-3.6,7.5-3.5c2.8,0,4.9,0.8,6.2,2.5s2.1,4.1,2.1,7.3v17h-7v-16.8
	c0.1-1.2-0.3-2.3-1-3.2c-0.9-0.8-2.1-1.1-3.2-1c-1.8-0.1-3.6,0.9-4.4,2.5V144h-7v-26.3H265.4z"/>
<path class="st0" d="M298.9,144.4c-3.5,0.1-6.9-1.1-9.4-3.6c-2.5-2.5-3.8-5.9-3.6-9.4v-0.7c0-2.4,0.5-4.9,1.5-7.1
	c0.9-2,2.4-3.7,4.3-4.8c1.9-1.1,4.2-1.7,6.4-1.7c3.2-0.2,6.3,1.1,8.5,3.4c2.1,2.3,3.1,5.5,3.1,9.6v2.9H293c0.1,1.6,0.9,3,2,4.1
	c1.2,1.1,2.7,1.6,4.3,1.6c2.5,0.1,4.8-1,6.3-2.9l3.5,3.9c-1.1,1.5-2.6,2.7-4.3,3.5C303,144,300.9,144.5,298.9,144.4z M298.1,122.9
	c-1.3,0-2.5,0.5-3.4,1.4c-0.9,1.1-1.5,2.5-1.7,4h9.8v-0.6c0.1-1.3-0.4-2.6-1.3-3.6C300.6,123.2,299.4,122.8,298.1,122.9L298.1,122.9
	z"/>
<path class="st0" d="M197.7,93.7c0.5,0.5,1.2,1,1.9,1.6s1.3,1,2,1.5c2.5,1.7,5.3,2.9,8.2,3.7c2.4,0.6,4.9,0.9,7.4,0.9
	c1,0,2-0.1,3-0.2c0.9-0.2,1.8-0.3,2.5-0.5l1-0.3l0.9-0.3c0.5-0.2,0.9-0.3,1.4-0.5l1.1-0.5h-1.2c-0.4,0-0.9,0-1.5,0s-1.2,0-1.9-0.1
	s-1.5-0.2-2.4-0.2s-1.8-0.3-2.7-0.5c-2.1-0.5-4.1-1.3-6-2.2c-2.2-1.1-4.2-2.5-6-4.1l-0.7-0.7l-19.5-19.5c-0.5-0.5-1.2-1-1.8-1.6
	s-1.3-1-2-1.5c-2.5-1.7-5.3-2.9-8.2-3.7c-3.4-0.9-6.9-1.1-10.4-0.7c-0.9,0.2-1.8,0.3-2.5,0.5l-1,0.3c-0.3,0.1-0.6,0.2-0.9,0.3
	c-0.6,0.2-1,0.4-1.4,0.5l-1.1,0.5h1.2c0.5,0,1,0,1.5,0c0.6,0,1.2,0,1.9,0.1s1.5,0.2,2.4,0.2s1.8,0.3,2.7,0.5c2.1,0.5,4.1,1.2,6,2.2
	c2.2,1.1,4.2,2.5,6,4.1l0.7,0.7L197.7,93.7z"/>
<path class="st0" d="M213.5,86.2c0.4,0.4,0.9,0.8,1.4,1.2s1,0.7,1.5,1.1c1.9,1.2,4,2.2,6.1,2.8c1.8,0.5,3.7,0.7,5.5,0.7
	c0.8,0,1.5-0.1,2.3-0.2c0.6-0.1,1.3-0.2,1.9-0.4l0.8-0.2l0.7-0.2c0.4-0.1,0.8-0.3,1-0.4l0.8-0.4h-0.9c-0.3,0-0.7,0-1.1,0
	s-0.9,0-1.5-0.1s-1.1-0.1-1.8-0.2s-1.3-0.2-2-0.4c-1.6-0.4-3.1-0.9-4.5-1.7c-1.6-0.8-3.2-1.9-4.5-3.1l-0.5-0.5L204,69.6
	c-0.4-0.4-0.9-0.8-1.4-1.2s-1-0.7-1.5-1.1c-1.9-1.2-4-2.2-6.1-2.8c-1.8-0.5-3.7-0.7-5.5-0.7c-0.8,0-1.5,0.1-2.3,0.2
	c-0.6,0.1-1.3,0.2-1.9,0.4l-0.8,0.2l-0.7,0.2c-0.4,0.2-0.8,0.3-1,0.4l-0.8,0.4h0.9c0.4,0,0.7,0,1.1,0c0.4,0,0.9,0,1.4,0.1
	s1.1,0.1,1.8,0.2s1.3,0.2,2,0.4c1.6,0.4,3.1,0.9,4.5,1.6c1.6,0.8,3.2,1.9,4.5,3.1l0.5,0.5L213.5,86.2z"/>
<path class="st0" d="M226.8,80.6c0.3,0.3,0.7,0.6,1,0.9c0.4,0.3,0.7,0.6,1.1,0.8c2.6,1.7,5.6,2.6,8.7,2.6c0.6,0,1.2-0.1,1.7-0.1
	c0.5-0.1,0.9-0.2,1.4-0.3l0.6-0.2l0.5-0.2c0.3-0.1,0.5-0.2,0.8-0.3l0.6-0.3h-0.7c-0.3,0-0.5,0-0.8,0c-0.3,0-0.7,0-1.1,0
	s-0.9-0.1-1.3-0.1s-1-0.2-1.5-0.3c-1.2-0.3-2.3-0.7-3.4-1.2c-1.2-0.6-2.4-1.4-3.4-2.3l-0.4-0.4l-11-11c-0.3-0.3-0.7-0.6-1-0.9
	s-0.7-0.6-1.1-0.8c-1.4-0.9-2.9-1.6-4.6-2.1c-1.3-0.4-2.7-0.5-4.1-0.5c-0.6,0-1.2,0.1-1.7,0.1s-1,0.2-1.4,0.3l-0.6,0.2l-0.5,0.2
	c-0.3,0.1-0.6,0.2-0.8,0.3l-0.6,0.3h0.7c0.3,0,0.5,0,0.8,0c0.3,0,0.7,0,1.1,0s0.9,0.1,1.3,0.1s1,0.2,1.5,0.3
	c1.2,0.3,2.3,0.7,3.4,1.3c1.2,0.6,2.4,1.4,3.4,2.3l0.4,0.4L226.8,80.6z"/>
<path class="st0" d="M97.1,164.5c0,0.9-0.5,1.8-1.1,2.5c-0.7,0.6-1.7,0.9-2.6,0.9c-1.1,0-2.2-0.4-2.8-1.3c-0.8-1-1.1-2.2-1.1-3.4v-1
	c0-0.9,0.2-1.7,0.5-2.5c0.3-0.7,0.8-1.2,1.4-1.6c0.6-0.4,1.4-0.6,2.1-0.6c0.9,0,1.9,0.3,2.6,0.9c0.7,0.7,1.1,1.5,1.1,2.5h-1.4
	c0-0.7-0.3-1.3-0.8-1.8c-0.4-0.4-1-0.6-1.6-0.5c-0.8,0-1.5,0.3-2,0.9c-0.5,0.8-0.8,1.7-0.7,2.7v1c-0.1,0.9,0.2,1.8,0.7,2.6
	c0.4,0.6,1.1,1,1.9,1c0.6,0,1.2-0.1,1.7-0.5c0.5-0.5,0.7-1.1,0.8-1.7L97.1,164.5z"/>
<path class="st0" d="M98.4,163.9c0-0.7,0.1-1.4,0.4-2c0.3-0.6,0.7-1,1.2-1.4c0.5-0.3,1.1-0.5,1.8-0.5c0.9,0,1.8,0.4,2.5,1.1
	c0.7,0.8,1,1.8,0.9,2.8v0.1c0,0.7-0.1,1.4-0.4,2c-0.5,1.2-1.7,1.9-3,1.8c-0.9,0-1.8-0.4-2.5-1.1C98.7,166,98.3,165,98.4,163.9
	L98.4,163.9z M99.7,164.1c0,0.7,0.2,1.4,0.6,2c0.4,0.5,0.9,0.8,1.5,0.8c0.6,0,1.2-0.3,1.6-0.8c0.4-0.6,0.6-1.4,0.6-2.1
	c0-0.7-0.2-1.4-0.6-2c-0.4-0.5-0.9-0.8-1.6-0.8c-0.6,0-1.2,0.3-1.5,0.8C99.8,162.5,99.6,163.3,99.7,164.1z"/>
<path class="st0" d="M108.2,167.7h-1.3v-10.6h1.3V167.7z"/>
<path class="st0" d="M111.6,167.7h-1.3v-10.6h1.3V167.7z"/>
<path class="st0" d="M116.8,167.9c-0.9,0-1.8-0.3-2.5-1c-0.7-0.7-1-1.7-1-2.7V164c0-0.7,0.1-1.4,0.4-2c0.3-0.6,0.7-1.1,1.3-1.4
	c0.5-0.3,1.1-0.5,1.7-0.5c0.9,0,1.7,0.3,2.3,1c0.6,0.8,0.9,1.8,0.8,2.8v0.5h-5.1c0,0.7,0.2,1.3,0.6,1.8c0.4,0.5,1,0.7,1.6,0.7
	c0.4,0,0.8-0.1,1.2-0.3c0.3-0.2,0.6-0.4,0.8-0.7l0.8,0.6C119,167.4,117.9,167.9,116.8,167.9z M116.6,161.2c-0.5,0-1,0.2-1.3,0.6
	c-0.4,0.4-0.6,1-0.7,1.6h3.7v-0.1c0-0.5-0.2-1.1-0.5-1.5C117.6,161.3,117.1,161.1,116.6,161.2z"/>
<path class="st0" d="M124.2,166.8c0.4,0,0.9-0.1,1.2-0.4c0.3-0.2,0.5-0.6,0.6-1h1.2c0,0.4-0.2,0.9-0.4,1.2c-0.3,0.4-0.7,0.7-1.1,0.9
	c-0.4,0.2-0.9,0.3-1.4,0.4c-0.9,0-1.8-0.3-2.4-1c-0.6-0.8-1-1.8-0.9-2.8v-0.2c0-0.7,0.1-1.3,0.4-1.9c0.2-0.5,0.6-1,1.2-1.3
	c0.5-0.3,1.1-0.5,1.8-0.5c0.8,0,1.5,0.2,2.1,0.8c0.6,0.5,0.9,1.2,0.9,2h-1.2c0-0.5-0.2-0.9-0.6-1.2c-0.3-0.3-0.8-0.5-1.2-0.5
	c-0.6,0-1.2,0.2-1.5,0.7c-0.4,0.6-0.6,1.3-0.5,2v0.2c0,0.7,0.1,1.4,0.5,2C123,166.6,123.6,166.9,124.2,166.8z"/>
<path class="st0" d="M130.3,158.4v1.8h1.4v1h-1.4v4.6c0,0.2,0.1,0.5,0.2,0.7c0.2,0.2,0.4,0.2,0.6,0.2c0.2,0,0.4,0,0.6-0.1v1
	c-0.3,0.1-0.7,0.1-1,0.1c-0.5,0-1-0.2-1.3-0.5c-0.3-0.4-0.5-0.9-0.4-1.5v-4.6h-1.4v-1h1.3v-1.8L130.3,158.4z"/>
<path class="st0" d="M133.2,158.3c0-0.2,0.1-0.4,0.2-0.5c0.1-0.2,0.4-0.2,0.6-0.2c0.2,0,0.4,0.1,0.6,0.2c0.1,0.1,0.2,0.3,0.2,0.5
	c0,0.2-0.1,0.4-0.2,0.5c-0.2,0.1-0.4,0.2-0.6,0.2C133.6,159,133.2,158.7,133.2,158.3C133.2,158.3,133.2,158.3,133.2,158.3z
	 M134.6,167.7h-1.3v-7.5h1.3V167.7z"/>
<path class="st0" d="M137.8,160.2v0.9c0.5-0.7,1.4-1.1,2.2-1.1c1.6,0,2.4,0.9,2.4,2.7v4.9h-1.3v-4.9c0-0.4-0.1-0.9-0.4-1.2
	c-0.3-0.3-0.7-0.4-1.1-0.4c-0.4,0-0.8,0.1-1.1,0.3c-0.3,0.2-0.6,0.5-0.7,0.9v5.3h-1.3v-7.5H137.8z"/>
<path class="st0" d="M144.1,163.9c-0.1-1,0.2-2,0.8-2.8c1-1.2,2.7-1.4,3.9-0.4c0.1,0.1,0.2,0.2,0.4,0.3l0.1-0.8h1.2v7.3
	c0,0.8-0.3,1.7-0.9,2.3c-0.6,0.6-1.5,0.9-2.3,0.8c-0.5,0-1.1-0.1-1.6-0.3c-0.5-0.2-0.9-0.5-1.2-0.9l0.7-0.8c0.5,0.6,1.2,1,2,1
	c0.5,0,1.1-0.2,1.4-0.5c0.4-0.4,0.6-0.9,0.5-1.5V167c-0.5,0.6-1.3,0.9-2.1,0.9c-0.8,0-1.6-0.4-2.1-1.1
	C144.3,166,144.1,165,144.1,163.9z M145.4,164.1c0,0.7,0.1,1.4,0.5,2c0.3,0.5,0.9,0.8,1.4,0.7c0.8,0,1.5-0.4,1.8-1.1v-3.4
	c-0.3-0.7-1-1.1-1.8-1.1c-0.6,0-1.1,0.3-1.5,0.7C145.5,162.6,145.4,163.3,145.4,164.1L145.4,164.1z"/>
<path class="st0" d="M155.6,163.9c-0.1-1,0.2-2,0.8-2.8c0.9-1.2,2.7-1.4,3.9-0.5c0.1,0.1,0.2,0.2,0.3,0.3v-3.9h1.3v10.6h-1.2
	l-0.1-0.8c-0.5,0.6-1.3,1-2.1,0.9c-0.8,0-1.6-0.4-2.1-1.1c-0.6-0.8-0.9-1.8-0.8-2.8L155.6,163.9z M156.8,164.1c0,0.7,0.1,1.4,0.5,2
	c0.3,0.5,0.9,0.7,1.4,0.7c0.8,0,1.5-0.4,1.8-1.1v-3.4c-0.3-0.7-1-1.1-1.8-1.1c-0.6,0-1.1,0.3-1.5,0.7
	C157,162.6,156.8,163.3,156.8,164.1L156.8,164.1z"/>
<path class="st0" d="M168.4,167.7c-0.1-0.3-0.2-0.5-0.2-0.8c-0.5,0.6-1.3,0.9-2.1,0.9c-0.7,0-1.3-0.2-1.8-0.6
	c-0.5-0.4-0.7-1-0.7-1.6c0-0.7,0.3-1.4,0.9-1.8c0.7-0.5,1.6-0.7,2.5-0.6h1.2v-0.6c0-0.4-0.1-0.8-0.4-1.1c-0.3-0.3-0.7-0.4-1.2-0.4
	c-0.4,0-0.8,0.1-1.1,0.3c-0.3,0.2-0.5,0.5-0.5,0.8h-1.3c0-0.4,0.1-0.8,0.4-1.1c0.3-0.4,0.7-0.6,1.1-0.8c0.5-0.2,1-0.3,1.5-0.3
	c0.7,0,1.4,0.2,2,0.6c0.5,0.5,0.8,1.1,0.8,1.8v3.5c0,0.6,0.1,1.1,0.3,1.6v0.1L168.4,167.7z M166.3,166.7c0.4,0,0.8-0.1,1.1-0.3
	c0.3-0.2,0.6-0.5,0.8-0.8v-1.5h-1c-1.6,0-2.4,0.5-2.4,1.4c0,0.4,0.1,0.7,0.4,0.9C165.6,166.6,166,166.8,166.3,166.7L166.3,166.7z"/>
<path class="st0" d="M173.3,158.4v1.8h1.4v1h-1.4v4.6c0,0.2,0,0.5,0.2,0.7c0.2,0.2,0.4,0.2,0.6,0.2c0.2,0,0.4,0,0.6-0.1v1
	c-0.3,0.1-0.7,0.1-1,0.1c-0.5,0-1-0.2-1.3-0.5c-0.3-0.4-0.5-0.9-0.4-1.5v-4.6h-1.4v-1h1.4v-1.8L173.3,158.4z"/>
<path class="st0" d="M180.8,167.7c-0.1-0.3-0.2-0.5-0.2-0.8c-0.5,0.6-1.3,0.9-2.1,0.9c-0.7,0-1.3-0.2-1.8-0.6
	c-0.5-0.4-0.7-1-0.7-1.6c0-0.7,0.3-1.4,0.9-1.8c0.7-0.5,1.6-0.7,2.5-0.6h1.2v-0.6c0-0.4-0.1-0.8-0.4-1.1c-0.3-0.3-0.8-0.4-1.2-0.4
	c-0.4,0-0.8,0.1-1.1,0.3c-0.3,0.2-0.5,0.5-0.5,0.8h-1.3c0-0.4,0.1-0.8,0.4-1.1c0.3-0.4,0.7-0.7,1.1-0.8c0.5-0.2,1-0.3,1.5-0.3
	c0.7,0,1.4,0.2,2,0.6c0.5,0.5,0.8,1.1,0.8,1.8v3.5c0,0.6,0.1,1.1,0.3,1.6v0.1L180.8,167.7z M178.7,166.7c0.4,0,0.8-0.1,1.1-0.3
	c0.3-0.2,0.6-0.5,0.8-0.8v-1.5h-1c-1.6,0-2.4,0.5-2.4,1.4c0,0.4,0.1,0.7,0.4,0.9C177.9,166.6,178.3,166.8,178.7,166.7L178.7,166.7z"
	/>
<path class="st0" d="M188,167.7v-6.5h-1.2v-1h1.2v-0.8c0-0.7,0.2-1.3,0.6-1.9c0.5-0.5,1.1-0.7,1.8-0.7c0.3,0,0.6,0,0.9,0.1l-0.1,1
	c-0.2,0-0.5-0.1-0.7-0.1c-0.4,0-0.7,0.1-1,0.4c-0.2,0.3-0.4,0.7-0.3,1.1v0.8h1.6v1h-1.6v6.5L188,167.7z"/>
<path class="st0" d="M191.9,163.9c0-0.7,0.1-1.4,0.4-2c0.3-0.6,0.7-1,1.2-1.4c0.5-0.3,1.1-0.5,1.8-0.5c0.9,0,1.8,0.4,2.5,1.1
	c0.7,0.8,1,1.8,0.9,2.8v0.1c0,0.7-0.1,1.4-0.4,2c-0.3,0.6-0.7,1-1.2,1.4c-0.5,0.3-1.2,0.5-1.8,0.5c-0.9,0-1.8-0.4-2.5-1.1
	C192.2,166,191.9,165,191.9,163.9L191.9,163.9z M193.2,164.1c0,0.7,0.2,1.4,0.6,2c0.6,0.9,1.9,1,2.7,0.4c0.1-0.1,0.3-0.2,0.4-0.4
	c0.4-0.6,0.6-1.4,0.6-2.1c0-0.7-0.2-1.4-0.6-2c-0.4-0.5-0.9-0.8-1.6-0.8c-0.6,0-1.2,0.3-1.5,0.8
	C193.4,162.6,193.2,163.3,193.2,164.1L193.2,164.1z"/>
<path class="st0" d="M203.9,161.4c-0.2,0-0.4,0-0.6,0c-0.7-0.1-1.4,0.4-1.7,1.1v5.3h-1.3v-7.5h1.2v0.9c0.4-0.6,1-1,1.8-1
	c0.2,0,0.4,0,0.6,0.1L203.9,161.4z"/>
<path class="st0" d="M208.3,163.9c0-0.7,0.1-1.4,0.4-2c0.3-0.6,0.7-1,1.2-1.4c0.5-0.3,1.1-0.5,1.8-0.5c0.9,0,1.8,0.4,2.5,1.1
	c0.7,0.8,1,1.8,1,2.8v0.1c0,0.7-0.1,1.4-0.4,2c-0.5,1.2-1.7,1.9-3,1.8c-0.9,0-1.8-0.4-2.5-1.1C208.6,166,208.2,165,208.3,163.9
	L208.3,163.9z M209.6,164.1c0,0.7,0.2,1.4,0.6,2c0.7,0.9,2,1,2.8,0.3c0.1-0.1,0.2-0.2,0.3-0.3c0.4-0.6,0.6-1.4,0.6-2.1
	c0-0.7-0.2-1.4-0.6-2c-0.7-0.8-1.9-1-2.7-0.3c-0.1,0.1-0.2,0.2-0.3,0.3C209.7,162.6,209.5,163.3,209.6,164.1z"/>
<path class="st0" d="M221.3,167c-0.6,0.6-1.4,0.9-2.2,0.9c-0.7,0-1.3-0.2-1.8-0.7c-0.4-0.6-0.7-1.3-0.6-2v-4.9h1.3v4.8
	c0,1.1,0.5,1.7,1.4,1.7c0.8,0.1,1.6-0.3,1.9-1.1v-5.4h1.3v7.5h-1.2L221.3,167z"/>
<path class="st0" d="M228.1,161.4c-0.2,0-0.4,0-0.6,0c-0.7-0.1-1.4,0.4-1.7,1.1v5.3h-1.3v-7.5h1.2v0.9c0.4-0.6,1-1,1.8-1
	c0.2,0,0.4,0,0.6,0.1L228.1,161.4z"/>
<path class="st0" d="M235.9,167.9c-0.9,0-1.8-0.3-2.5-1c-0.7-0.7-1-1.7-0.9-2.7V164c0-0.7,0.1-1.4,0.4-2c0.3-0.6,0.7-1,1.2-1.4
	c0.5-0.3,1.1-0.5,1.7-0.5c0.9,0,1.7,0.3,2.3,1c0.6,0.8,0.9,1.8,0.8,2.8v0.5h-5.1c0,0.7,0.2,1.3,0.6,1.8c0.4,0.5,1,0.7,1.6,0.7
	c0.4,0,0.8-0.1,1.1-0.3c0.3-0.2,0.6-0.4,0.8-0.7l0.8,0.6C238.1,167.4,237,167.9,235.9,167.9z M235.7,161.2c-0.5,0-1,0.2-1.3,0.6
	c-0.4,0.4-0.6,1-0.6,1.6h3.7v-0.1c0-0.5-0.2-1.1-0.5-1.5C236.7,161.3,236.2,161.1,235.7,161.2z"/>
<path class="st0" d="M241.5,160.2v0.9c0.5-0.7,1.4-1.1,2.2-1.1c1.6,0,2.4,0.9,2.4,2.7v4.9h-1.3v-4.9c0-0.4-0.1-0.9-0.4-1.2
	c-0.3-0.3-0.7-0.4-1.1-0.4c-0.4,0-0.8,0.1-1.1,0.3c-0.3,0.2-0.6,0.5-0.7,0.9v5.3h-1.3v-7.5H241.5z"/>
<path class="st0" d="M250.5,166l1.9-5.7h1.3l-2.7,7.5h-1l-2.7-7.5h1.3L250.5,166z"/>
<path class="st0" d="M254.9,158.3c0-0.2,0.1-0.4,0.2-0.5c0.1-0.2,0.4-0.2,0.6-0.2c0.2,0,0.4,0.1,0.6,0.2c0.1,0.1,0.2,0.3,0.2,0.5
	c0,0.2-0.1,0.4-0.2,0.5c-0.2,0.1-0.4,0.2-0.6,0.2C255.3,159,255,158.7,254.9,158.3C254.9,158.3,254.9,158.3,254.9,158.3L254.9,158.3
	z M256.3,167.7H255v-7.5h1.3L256.3,167.7z"/>
<path class="st0" d="M262,161.4c-0.2,0-0.4,0-0.6,0c-0.7-0.1-1.4,0.4-1.7,1.1v5.3h-1.3v-7.5h1.2v0.9c0.4-0.6,1-1,1.8-1
	c0.2,0,0.4,0,0.6,0.1L262,161.4z"/>
<path class="st0" d="M262.6,163.9c0-0.7,0.1-1.4,0.4-2c0.3-0.6,0.7-1,1.2-1.4c0.5-0.3,1.1-0.5,1.8-0.5c0.9,0,1.8,0.4,2.5,1.1
	c0.7,0.8,1,1.8,1,2.8v0.1c0,0.7-0.1,1.4-0.4,2c-0.5,1.2-1.7,1.9-3,1.8c-0.9,0-1.8-0.4-2.5-1.1C262.9,166,262.6,165,262.6,163.9
	L262.6,163.9z M263.9,164.1c0,0.7,0.2,1.4,0.6,2c0.4,0.5,0.9,0.8,1.5,0.8c0.6,0,1.2-0.3,1.5-0.8c0.4-0.6,0.6-1.4,0.6-2.1
	c0-0.7-0.2-1.4-0.6-2c-0.4-0.5-0.9-0.8-1.5-0.8c-0.6,0-1.2,0.3-1.5,0.8C264.1,162.5,263.9,163.3,263.9,164.1z"/>
<path class="st0" d="M272.3,160.2l0,0.9c0.5-0.7,1.4-1.1,2.2-1.1c1.6,0,2.4,0.9,2.4,2.7v4.9h-1.3v-4.9c0-0.4-0.1-0.9-0.4-1.2
	c-0.3-0.3-0.7-0.4-1.1-0.4c-0.4,0-0.8,0.1-1.1,0.3c-0.3,0.2-0.6,0.5-0.7,0.9v5.3h-1.3v-7.5H272.3z"/>
<path class="st0" d="M280.1,160.2v0.8c0.5-0.7,1.4-1,2.2-1c0.9-0.1,1.7,0.4,2.1,1.2c0.3-0.4,0.6-0.7,1-0.9c0.4-0.2,0.9-0.3,1.4-0.3
	c1.6,0,2.5,0.9,2.5,2.6v5H288v-4.9c0-0.4-0.1-0.9-0.4-1.2c-0.3-0.3-0.8-0.4-1.2-0.4c-0.9,0-1.7,0.7-1.7,1.6v5h-1.3v-4.9
	c0.1-0.8-0.4-1.5-1.2-1.6c-0.1,0-0.3,0-0.4,0c-0.7-0.1-1.4,0.4-1.7,1.1v5.4h-1.3v-7.5L280.1,160.2z"/>
<path class="st0" d="M294.4,167.9c-0.9,0-1.8-0.3-2.5-1c-0.7-0.7-1-1.7-1-2.7V164c0-0.7,0.1-1.4,0.4-2c0.3-0.6,0.7-1,1.2-1.4
	c0.5-0.3,1.1-0.5,1.6-0.5c0.9,0,1.7,0.3,2.3,1c0.6,0.8,0.9,1.8,0.8,2.8v0.5h-5.1c0,0.7,0.2,1.3,0.6,1.8c0.4,0.5,1,0.7,1.6,0.7
	c0.4,0,0.8-0.1,1.1-0.3c0.3-0.2,0.6-0.4,0.8-0.7l0.8,0.6C296.5,167.4,295.5,167.9,294.4,167.9z M294.2,161.2c-0.5,0-1,0.2-1.3,0.6
	c-0.4,0.4-0.6,1-0.6,1.6h3.8v-0.1c0-0.5-0.2-1.1-0.5-1.5C295.1,161.3,294.7,161.1,294.2,161.2L294.2,161.2z"/>
<path class="st0" d="M300,160.2v0.9c0.5-0.7,1.4-1.1,2.2-1.1c1.6,0,2.4,0.9,2.4,2.7v4.9h-1.3v-4.9c0-0.4-0.1-0.9-0.4-1.2
	c-0.3-0.3-0.7-0.4-1.1-0.4c-0.4,0-0.8,0.1-1.1,0.3c-0.3,0.2-0.6,0.5-0.7,0.9v5.3h-1.3v-7.5H300z"/>
<path class="st0" d="M308.3,158.4v1.8h1.4v1h-1.4v4.6c0,0.2,0,0.5,0.2,0.7c0.2,0.2,0.4,0.2,0.6,0.2c0.2,0,0.4,0,0.6-0.1v1
	c-0.3,0.1-0.7,0.1-1,0.1c-0.5,0-1-0.2-1.3-0.5c-0.3-0.4-0.5-0.9-0.4-1.5v-4.6h-1.4v-1h1.4v-1.8L308.3,158.4z"/>
</svg>
