<?xml version="1.0" encoding="utf-8"?>
<!-- Generator: Adobe Illustrator 22.0.1, SVG Export Plug-In . SVG Version: 6.00 Build 0)  -->
<svg version="1.1" id="Laag_1" xmlns="http://www.w3.org/2000/svg" xmlns:xlink="http://www.w3.org/1999/xlink" x="0px" y="0px"
	 viewBox="0 0 136.1 177.6" style="enable-background:new 0 0 136.1 177.6;" xml:space="preserve">
<style type="text/css">
	.st0{fill:#FFFFFF;}
</style>
<g>
	<path class="st0" d="M103.8,19.9l3.8-4.6l-6.9-4.8l-3.5,5.6c0,0-4.8-2.8-13.6-5S70.3,9.3,70.3,9.3l0.1-3.4L73,6.1l1-4.9
		c0,0-3.2-1.2-8.3-1.2c-4.2,0-8.3,1-8.3,1l0.5,5.1l3.7-0.3l0.1,4C36.1,12.5,1.1,32.2,0,74.2c-1,42,29.1,69.6,67.3,69.9
		c33.8,0.3,69.2-23.1,68.8-66.2C135.7,39,109.1,23.2,103.8,19.9z M67.1,143.1c-35.8,0-67.9-28-66.2-68.4C2.7,31,38.6,12.9,62.5,10.3
		L62,5.4h-3.6v-4c0,0,2.8-1,7.3-0.9c5,0.1,7.3,1.1,7.3,1.1l-0.6,4h-2.8V10c0,0,4.3-0.4,13,1.6c8.8,2.1,14.7,5.3,14.7,5.3l3.2-5.1
		l5.6,3.7l-3.3,4.5c5.2,3.3,31.6,19.4,32,58.2C135.4,118.4,103.2,143.1,67.1,143.1z"/>
	<path class="st0" d="M28.7,96.7l8,0.1l9.6,0.1h4.8c1.6,0,3.2,0,4.8,0c2.8,0,5.6-0.1,8.3-0.1c0.1,0.7,0.1,1.3,0.2,2h0.1
		c0-0.7,0-1.3,0-2c0.3,0,0.7,0,1,0c-0.3,0-0.7-0.1-1-0.1c-0.1-5.6-0.3-11.2-0.4-16.8c0.2,0,0.3,0,0.5,0l0.1,1.9l0.3,2.8
		c0.2,1.9,0.4,3.8,0.6,5.7c0.2,1.6,0.4,3.3,0.6,4.9c-0.3,0-0.5,0-0.8,0.1v0.1c0.3,0,0.6,0,0.8,0c0,0.2,0,0.3,0.1,0.5
		c0.1,0.9,0.3,1.9,0.4,2.8c0,0.2,0.1,0.4,0.1,0.7c-0.6,0-1.1,0-1.7,0c-0.9,0-1.9,0-2.8,0.1c-0.9,0.1-1.9,0.1-2.8,0.3
		c-1.9,0.2-3.8,0.7-5.6,1.4c-0.9,0.4-1.8,0.8-2.6,1.3c-0.4,0.3-0.8,0.5-1.2,0.8s-0.7,0.6-1,1l0.1,0.1c0.7-0.6,1.5-1.1,2.3-1.5
		s1.7-0.7,2.6-1c1.8-0.5,3.6-0.9,5.4-1c2.5-0.2,4.9-0.4,7.4-0.4c0.1,0.3,0.1,0.7,0.2,1c-0.4,0.1-0.7,0.2-1.1,0.3c-1,0.3-2,0.6-3,1
		c1-0.2,2-0.5,3-0.8s2-0.5,3-0.8c1.6,0.5,3.2,0.9,4.8,1.4l2.4,0.7l0.6,0.2c-0.6,0-1.2,0-1.8,0h-3.7c-1.2,0-2.4,0-3.7,0.1
		c-1.2,0-2.4,0.1-3.7,0.1c1.2,0.1,2.4,0.1,3.7,0.1c1.2,0,2.4,0.1,3.7,0.1H75c1.2,0,2.4,0,3.7,0h1.9l-1.9-0.5l-2.4-0.7l-2.4-0.7
		c-1.6-0.4-3.2-0.9-4.9-1.3h-0.1l0,0c-0.6,0.2-1.2,0.4-1.8,0.6c0-0.3,0-0.6-0.1-0.9c1.2,0,2.4,0,3.6,0.1c1.9,0.1,3.7,0.4,5.6,0.6
		c1.8,0.3,3.7,0.7,5.5,1c3.7,0.7,7.4,1.4,11,2.2v-0.1c-3.7-0.9-7.3-1.7-11-2.6c-1.8-0.4-3.7-0.8-5.5-1.2c-1.9-0.3-3.7-0.6-5.6-0.8
		c-1.2-0.1-2.5-0.2-3.7-0.2c-0.1-1.3-0.2-2.6-0.3-4c1.4,0.1,2.8,0.2,4.2,0.2c1.9,0.1,3.7,0.1,5.6,0.1c3.7,0.1,7.5,0,11.2-0.1
		c3.7,0,7.5-0.1,11.2-0.1l11.2-0.3v-0.1L98.8,95c-3.7,0-7.5-0.1-11.2-0.2l-5.6,0h-2.8c-0.9,0-1.9,0-2.8,0c-1.9,0-3.7,0.1-5.6,0.2
		c-1.4,0.1-2.8,0.1-4.2,0.2c-0.4-5.1-0.8-10.3-1.1-15.4c2.8-0.2,5.6-0.4,8.4-0.6l2.7-0.2l2.7-0.3c1.8-0.2,3.6-0.3,5.5-0.5
		c3.6-0.3,7.3-0.5,11-0.5c2.5-0.1,5-0.1,7.5,0c0.5,1.9,0.9,3.9,1.4,5.8c0.8,3.5,1.5,7,2.1,10.6c-0.6-5.5-1.6-10.9-2.8-16.3
		c0.9,0,1.9,0.1,2.8,0.1v-0.1c-0.9-0.1-1.9-0.2-2.8-0.2c-0.3-1.6-0.7-3.1-1.1-4.7c-1.3-5.2-2.7-10.3-4.3-15.3c0.5,0,0.9,0,1.4,0
		v-0.1c-0.5,0-1,0-1.4-0.1c-0.6-1.8-1.1-3.5-1.8-5.3c-1.3-3.4-2.8-6.7-4.4-9.9c-1.3-2.5-2.7-4.8-4.2-7.2c0.1,0,0.3,0,0.4,0v-0.1
		c-0.2,0-0.3,0-0.5,0c-0.4-0.7-0.9-1.3-1.3-2c-2-3-4.2-5.8-6.6-8.6c-1.2-1.4-2.4-2.7-3.6-4c-0.9-1-1.9-1.9-2.9-2.8
		c0.2,0,0.4,0,0.6,0v-0.1c-0.3,0-0.5-0.1-0.8-0.1c-0.3-0.3-0.5-0.5-0.8-0.8c0.2,0.2,0.5,0.5,0.7,0.7c-0.4-0.1-0.9-0.1-1.3-0.2
		c-0.7-0.1-1.5-0.2-2.2-0.2c-0.9-0.1-1.7-0.1-2.3,0c-0.4,0.1-0.9,0.1-1.3,0.3c0.1-2.1,0.3-4.2,0.4-6.2h-0.1
		c-0.2,2.1-0.4,4.2-0.6,6.3c-0.2,0.1-0.4,0.1-0.6,0.2v0.1c0.2,0,0.4,0,0.6,0.1c-0.5,5.3-0.9,10.7-1.3,16c-0.1,1.4-0.2,2.9-0.3,4.3
		h-0.1c0.1-2.7,0.3-5.4,0.4-8.1c0.4-7.7,0.8-15.4,1.3-23h-0.1c-0.6,7.7-1.2,15.3-1.7,23c-0.2,2.8-0.4,5.5-0.5,8.3
		c-0.1,0-0.2,0.1-0.4,0.1v0.1c0.1,0,0.2,0,0.3,0c-0.3,4.8-0.6,9.7-0.8,14.5c-0.1,2.3-0.2,4.6-0.3,6.9c-0.3,0.1-0.5,0.1-0.8,0.2V60
		c0.3,0,0.5,0,0.8,0c0,1.5-0.1,3-0.1,4.4c0,1.9,0,3.8,0.1,5.8c0,1.9,0.1,3.8,0.2,5.8c0.1,1.3,0.1,2.7,0.2,4h-0.1v0.1h0.1
		c0.3,5.6,0.7,11.2,1.2,16.7c-2.8-0.3-5.5-0.4-8.3-0.5c-1.6-0.1-3.2-0.1-4.8-0.2c-1.6,0-3.2-0.1-4.8-0.1s-3.2,0-4.8,0
		s-3.2,0-4.8,0.1C34,96.2,31.3,96.3,28.7,96.7c0.3-0.9,0.7-1.7,1-2.5c1.4-3.4,2.9-6.8,4.3-10.1c1.5-3.4,2.9-6.7,4.5-10.1
		c1.5-3.3,3.1-6.6,4.8-9.9c1.7-3.3,3.3-6.5,5-9.8l5-9.8l5-9.8l2.5-4.9l1.2-2.5l1.2-2.5L62,27.1l-1.3,2.4L58,34.3
		c-1.8,3.2-3.5,6.4-5.3,9.7c-1.8,3.2-3.5,6.5-5.2,9.7c-1.7,3.3-3.4,6.5-5.1,9.8c-3.4,6.6-6.3,13.3-9.1,20.1c-1.7,4.3-3.4,8.6-5,12.9
		c-0.4,0-0.8,0.1-1.3,0.1h1.2c-0.9,2.5-1.9,5.1-2.8,7.6C26.6,101.7,27.6,99.2,28.7,96.7z M97.5,57.5c0.6,1.7,1.1,3.4,1.6,5.1
		c1.1,3.4,2,6.9,2.9,10.4c0.4,1.5,0.8,3,1.1,4.4c-2.5-0.2-4.9-0.2-7.4-0.3c-3.7,0-7.3,0-11,0.2s-7.3,0.3-11,0.8
		c-1.8,0.2-3.6,0.5-5.5,0.7c-1,0.2-1.9,0.3-2.9,0.5c0-0.2,0-0.3,0-0.5l-0.4-5.7l-0.3-5.7c-0.1-1.9-0.2-3.8-0.3-5.7
		c0-0.7-0.1-1.4-0.1-2.1c0.7,0,1.5-0.1,2.2-0.1c1.6-0.1,3.2-0.2,4.8-0.4c3.2-0.3,6.3-0.7,9.5-1s6.3-0.5,9.5-0.6
		C92.8,57.5,95.1,57.5,97.5,57.5L97.5,57.5z M65.2,33.5c0.3-5.3,0.7-10.7,1-16c0.4,0,0.8,0,1.2,0c0.7,0,1.6,0,2.3,0
		c0.7,0,1.5,0,2.2,0c0.5,0,1,0,1.5,0c2.2,2.3,4.2,4.7,6.2,7.2c2.2,2.8,4.3,5.7,6.3,8.7c0.3,0.5,0.7,1,1,1.5c-1.6,0-3.2,0.1-4.8,0.1
		c-1.1,0-2.1,0.1-3.2,0.1c-1.1,0.1-2.1,0.2-3.2,0.3s-2.1,0.3-3.2,0.4c-1.1,0.1-2.1,0.3-3.1,0.5s-2.1,0.5-3.1,0.7
		c-0.5,0.1-0.9,0.3-1.4,0.4C65.1,36.2,65.2,34.9,65.2,33.5z M65,38.1c0.5-0.1,1.1-0.1,1.6-0.2c1.1-0.1,2.1-0.3,3.1-0.4
		c2.1-0.3,4.1-0.9,6.2-1.2c1-0.2,2.1-0.3,3.1-0.5c1-0.1,2.1-0.2,3.2-0.3c1.6-0.1,3.3-0.3,4.9-0.4c1.5,2.5,3,5,4.3,7.5
		c1.6,3.2,3.1,6.4,4.3,9.8c0.6,1.6,1.1,3.2,1.7,4.8c-2.3-0.1-4.7-0.1-7-0.2c-3.2,0-6.4,0.1-9.6,0.3s-6.4,0.4-9.6,0.8
		c-1.6,0.2-3.2,0.4-4.7,0.7c-0.7,0.1-1.4,0.2-2.1,0.4c0-1,0-2,0-3C64.4,50.2,64.7,44.1,65,38.1z M64.4,38.2L64.4,38.2
		c0,1.8-0.2,3.7-0.3,5.5C64.2,41.8,64.3,40,64.4,38.2z M63.6,58.5c0-0.2,0-0.3,0-0.5c0,0.5,0,0.9,0,1.4l0,0
		C63.5,59.1,63.5,58.8,63.6,58.5z M63.9,75.8L63.7,70c-0.1-1.9-0.1-3.8-0.2-5.8c0-1.5,0-3,0-4.5l0,0c0,0.7,0,1.4,0,2.1
		c0,1.9,0.1,3.8,0.2,5.7c0.1,1.9,0.1,3.8,0.2,5.7l0.2,2.8c0.1,0.9,0.1,1.9,0.2,2.8v0.6c-0.1,0-0.3,0.1-0.4,0.1
		C63.9,78.4,63.9,77.1,63.9,75.8z"/>
	<path class="st0" d="M105.2,96.6l-12.5-0.1c-4.2-0.1-8.3-0.2-12.5-0.3L67.8,96v0.1c2.1,0.2,4.1,0.4,6.2,0.6s4.2,0.3,6.2,0.4
		c4.2,0.2,8.3,0.2,12.5,0.2l12.5-0.1l12.5-0.2v-0.1L105.2,96.6z"/>
	<path class="st0" d="M102.2,110.3c-3.4,0.9-6.9,1.7-10.4,2.5c-6.9,1.6-13.9,3.2-20.8,4.6c-7,1.5-13.9,2.7-20.9,4
		c-3.5,0.6-7,1.2-10.5,1.7c-1.8,0.3-3.5,0.5-5.3,0.7c-1.4,0.2-2.9,0.3-4.3,0.5c-0.3-1.5-0.7-3-1-4.4c-0.4-1.7-0.9-3.4-1.3-5l-1.4-5
		c-0.5-1.6-0.9-3.3-1.5-4.9c1.4,0.1,2.7,0.1,4.1,0.1l5.6,0.1c3.7,0.1,7.4,0.1,11.2,0.2c7.4,0.1,14.9-0.1,22.3-0.1
		c7.4-0.1,14.9-0.1,22.3,0c7.4,0,14.9,0.1,22.3,0.2v-0.1c-7.4-0.2-14.9-0.4-22.3-0.6c-7.4-0.1-14.9-0.3-22.3-0.3s-14.9-0.1-22.3-0.1
		c-3.7,0-7.4,0.1-11.2,0.1l-5.6,0.1c-1.9,0.1-3.7,0.1-5.6,0.2v0.1c0.5,0,1,0,1.5,0.1c0.1,1.7,0.4,3.4,0.7,5.1
		c0.3,1.7,0.7,3.4,1.2,5.1s1,3.3,1.6,5c0.5,1.4,1.1,2.8,1.7,4.2c-0.3,0-0.6,0.1-0.9,0.1v0.1c0.3,0,0.6,0,0.9,0
		c0.1,0.2,0.1,0.3,0.2,0.5c0-0.2-0.1-0.3-0.1-0.5c3.2,0,6.4-0.3,9.6-0.6c3.5-0.4,7.1-0.9,10.6-1.4c7-1.1,14-2.6,20.9-4.2
		s13.9-3.2,20.7-5c3.4-0.9,6.9-1.8,10.3-2.7c3.4-0.9,6.9-1.9,10.2-3v-0.1C109.1,108.5,105.7,109.4,102.2,110.3z"/>
	<path class="st0" d="M68.9,106.8L58.8,107l-5.1,0.1l-5.1,0.2c-3.4,0.1-6.7,0.3-10.1,0.4l-5.1,0.3c-1.7,0.1-3.4,0.2-5.1,0.3v0.1
		c1.7,0,3.4,0,5.1,0.1h5.1c3.4,0,6.7-0.1,10.1-0.1c6.7-0.1,13.5-0.4,20.2-0.7c6.7-0.3,13.5-0.6,20.2-0.8l20.2-0.8V106L89,106.4
		C82.4,106.4,75.6,106.6,68.9,106.8z"/>
</g>
<g>
	<path class="st0" d="M41.4,159H38v3.5h-1.8V154h5.6v1.4H38v2.2h3.4V159z"/>
	<path class="st0" d="M44.5,162.5h-1.7v-9h1.7V162.5z"/>
	<path class="st0" d="M48.8,162.6c-0.9,0-1.7-0.3-2.3-0.9s-0.9-1.3-0.9-2.3v-0.2c0-0.6,0.1-1.2,0.4-1.7s0.6-0.9,1-1.2s1-0.4,1.5-0.4
		c0.9,0,1.5,0.3,2,0.8s0.7,1.3,0.7,2.3v0.7h-4c0.1,0.4,0.2,0.7,0.5,1s0.6,0.4,1,0.4c0.7,0,1.2-0.2,1.5-0.7l0.8,0.9
		c-0.3,0.4-0.6,0.6-1,0.8S49.3,162.6,48.8,162.6z M48.6,157.4c-0.3,0-0.6,0.1-0.8,0.3s-0.3,0.6-0.4,1h2.4v-0.1
		c0-0.4-0.1-0.7-0.3-0.9S49,157.4,48.6,157.4z"/>
	<path class="st0" d="M55.3,162.6c-0.9,0-1.7-0.3-2.3-0.9s-0.9-1.3-0.9-2.3v-0.2c0-0.6,0.1-1.2,0.4-1.7s0.6-0.9,1-1.2s1-0.4,1.5-0.4
		c0.9,0,1.5,0.3,2,0.8s0.7,1.3,0.7,2.3v0.7h-4c0.1,0.4,0.2,0.7,0.5,1s0.6,0.4,1,0.4c0.7,0,1.2-0.2,1.5-0.7l0.8,0.9
		c-0.3,0.4-0.6,0.6-1,0.8S55.8,162.6,55.3,162.6z M55.1,157.4c-0.3,0-0.6,0.1-0.8,0.3s-0.3,0.6-0.4,1h2.4v-0.1
		c0-0.4-0.1-0.7-0.3-0.9S55.4,157.4,55.1,157.4z"/>
	<path class="st0" d="M60.9,154.6v1.6H62v1.2h-1.1v3.2c0,0.2,0,0.4,0.1,0.5s0.3,0.2,0.5,0.2c0.2,0,0.4,0,0.5,0v1.3
		c-0.3,0.1-0.7,0.2-1,0.2c-1.2,0-1.8-0.6-1.8-1.8v-3.4h-0.9v-1.2h0.9v-1.6H60.9z"/>
	<path class="st0" d="M70.4,160.3c0-0.3-0.1-0.6-0.4-0.8s-0.7-0.4-1.3-0.6s-1.1-0.4-1.4-0.6c-1-0.5-1.5-1.2-1.5-2.1
		c0-0.5,0.1-0.9,0.4-1.2s0.6-0.6,1.1-0.8s1-0.3,1.6-0.3c0.6,0,1.2,0.1,1.6,0.3s0.8,0.5,1.1,0.9s0.4,0.9,0.4,1.4h-1.8
		c0-0.4-0.1-0.7-0.4-0.9s-0.6-0.3-1-0.3c-0.4,0-0.8,0.1-1,0.3s-0.4,0.4-0.4,0.7c0,0.3,0.1,0.5,0.4,0.7s0.7,0.4,1.2,0.5
		c1,0.3,1.7,0.7,2.2,1.1s0.7,1,0.7,1.7c0,0.7-0.3,1.3-0.8,1.7s-1.3,0.6-2.3,0.6c-0.7,0-1.3-0.1-1.8-0.4s-1-0.6-1.2-1
		s-0.4-0.9-0.4-1.5h1.8c0,0.9,0.6,1.4,1.7,1.4c0.4,0,0.7-0.1,1-0.3S70.4,160.6,70.4,160.3z"/>
	<path class="st0" d="M75.9,161.3c0.3,0,0.6-0.1,0.8-0.3s0.3-0.4,0.3-0.7h1.6c0,0.4-0.1,0.8-0.4,1.2s-0.5,0.6-0.9,0.8
		s-0.8,0.3-1.3,0.3c-0.9,0-1.6-0.3-2.1-0.9s-0.8-1.4-0.8-2.4v-0.1c0-1,0.3-1.8,0.8-2.3s1.2-0.9,2.1-0.9c0.8,0,1.4,0.2,1.9,0.7
		s0.7,1.1,0.7,1.8H77c0-0.3-0.1-0.6-0.3-0.8s-0.5-0.3-0.8-0.3c-0.4,0-0.7,0.1-0.9,0.4c-0.2,0.3-0.3,0.8-0.3,1.4v0.2
		c0,0.7,0.1,1.1,0.3,1.4C75.2,161.1,75.5,161.3,75.9,161.3z"/>
	<path class="st0" d="M79.5,154.5c0-0.3,0.1-0.5,0.3-0.6s0.4-0.2,0.7-0.2c0.3,0,0.5,0.1,0.7,0.2s0.3,0.4,0.3,0.6
		c0,0.3-0.1,0.5-0.3,0.6s-0.4,0.2-0.7,0.2s-0.5-0.1-0.7-0.2S79.5,154.8,79.5,154.5z M81.3,162.5h-1.7v-6.3h1.7V162.5z"/>
	<path class="st0" d="M85.6,162.6c-0.9,0-1.7-0.3-2.3-0.9s-0.9-1.3-0.9-2.3v-0.2c0-0.6,0.1-1.2,0.4-1.7s0.6-0.9,1-1.2s1-0.4,1.5-0.4
		c0.9,0,1.5,0.3,2,0.8s0.7,1.3,0.7,2.3v0.7h-4c0.1,0.4,0.2,0.7,0.5,1s0.6,0.4,1,0.4c0.7,0,1.2-0.2,1.5-0.7l0.8,0.9
		c-0.3,0.4-0.6,0.6-1,0.8S86.1,162.6,85.6,162.6z M85.4,157.4c-0.3,0-0.6,0.1-0.8,0.3s-0.3,0.6-0.4,1h2.4v-0.1
		c0-0.4-0.1-0.7-0.3-0.9S85.8,157.4,85.4,157.4z"/>
	<path class="st0" d="M90.7,156.2l0.1,0.7c0.5-0.6,1.1-0.8,1.8-0.8c0.7,0,1.2,0.2,1.5,0.6s0.5,1,0.5,1.8v4.1h-1.7v-4.1
		c0-0.4-0.1-0.6-0.2-0.8s-0.4-0.2-0.8-0.2c-0.5,0-0.8,0.2-1.1,0.6v4.5h-1.7v-6.3H90.7z"/>
	<path class="st0" d="M98.5,161.3c0.3,0,0.6-0.1,0.8-0.3s0.3-0.4,0.3-0.7h1.6c0,0.4-0.1,0.8-0.4,1.2s-0.5,0.6-0.9,0.8
		s-0.8,0.3-1.3,0.3c-0.9,0-1.6-0.3-2.1-0.9s-0.8-1.4-0.8-2.4v-0.1c0-1,0.3-1.8,0.8-2.3s1.2-0.9,2.1-0.9c0.8,0,1.4,0.2,1.9,0.7
		s0.7,1.1,0.7,1.8h-1.6c0-0.3-0.1-0.6-0.3-0.8s-0.5-0.3-0.8-0.3c-0.4,0-0.7,0.1-0.9,0.4c-0.2,0.3-0.3,0.8-0.3,1.4v0.2
		c0,0.7,0.1,1.1,0.3,1.4C97.8,161.1,98.1,161.3,98.5,161.3z"/>
	<path class="st0" d="M105.1,162.6c-0.9,0-1.7-0.3-2.3-0.9s-0.9-1.3-0.9-2.3v-0.2c0-0.6,0.1-1.2,0.4-1.7s0.6-0.9,1-1.2
		s1-0.4,1.5-0.4c0.9,0,1.5,0.3,2,0.8s0.7,1.3,0.7,2.3v0.7h-4c0.1,0.4,0.2,0.7,0.5,1s0.6,0.4,1,0.4c0.7,0,1.2-0.2,1.5-0.7l0.8,0.9
		c-0.3,0.4-0.6,0.6-1,0.8S105.6,162.6,105.1,162.6z M104.9,157.4c-0.3,0-0.6,0.1-0.8,0.3s-0.3,0.6-0.4,1h2.4v-0.1
		c0-0.4-0.1-0.7-0.3-0.9S105.3,157.4,104.9,157.4z"/>
</g>
</svg>
